<?xml version="1.0" standalone="no"?><!DOCTYPE svg PUBLIC "-//W3C//DTD SVG 1.1//EN" "http://www.w3.org/Graphics/SVG/1.1/DTD/svg11.dtd"><svg t="1510067535129" class="icon" style="" viewBox="0 0 1076 1024" version="1.1" xmlns="http://www.w3.org/2000/svg" p-id="5315" xmlns:xlink="http://www.w3.org/1999/xlink" width="50.4375" height="48"><defs><style type="text/css"></style></defs><path d="M325.579487 31.507692C236.307692 73.517949 207.425641 160.164103 254.687179 257.312821c39.384615 78.769231 131.282051 181.169231 147.035898 160.164102 5.251282-5.251282 39.384615-49.887179 78.769231-97.148718 86.646154-107.651282 89.271795-173.292308 5.251282-254.687179-70.892308-73.517949-78.769231-73.517949-160.164103-34.133334z m141.784616 52.512821c47.261538 47.261538 36.758974 157.538462-23.63077 231.05641l-55.138461 65.641026-63.015385-73.517949c-73.517949-86.646154-81.394872-154.912821-21.005128-212.676923 47.261538-49.887179 118.153846-55.138462 162.789744-10.502564z" p-id="5316" fill="#12a853"></path><path d="M564.512821 291.446154c-15.753846 21.005128 147.035897 49.887179 291.446153 49.887179h110.276923l28.882052 196.923077c36.758974 257.312821 39.384615 249.435897-31.507693 249.435898-44.635897 0-73.517949 26.25641-105.025641 91.897436-49.887179 105.025641-81.394872 110.276923-320.328205 52.51282-86.646154-21.005128-228.430769-36.758974-317.702564-39.384615H60.389744l60.389743-278.317949c34.133333-152.287179 68.266667-286.194872 76.14359-301.948718 10.502564-13.128205 5.251282-23.630769-10.502564-23.630769-31.507692 0-39.384615 23.630769-107.651282 333.45641C7.876923 953.107692 5.251282 939.979487 139.158974 926.851282c63.015385-7.876923 231.05641 10.502564 385.969231 42.010256L798.194872 1024l97.148718-68.266667c178.54359-123.405128 178.54359-126.030769 144.410256-383.343589-18.379487-126.030769-36.758974-233.682051-44.635897-238.933334-23.630769-21.005128-422.728205-60.389744-430.605128-42.010256z" p-id="5317" fill="#12a853"></path><path d="M228.430769 425.353846c-10.502564 31.507692-10.502564 63.015385-5.251282 70.892308 23.630769 21.005128 273.066667 34.133333 343.958975 18.379487l70.892307-18.379487-63.015384-65.641026-60.389744-63.015384-60.389744 57.764102-60.389743 55.138462-60.389744-55.138462c-76.14359-70.892308-86.646154-70.892308-105.025641 0zM577.641026 385.969231c0 13.128205 28.882051 42.010256 65.641025 60.389743 57.764103 31.507692 73.517949 31.507692 110.276923-7.876923 42.010256-42.010256 42.010256-44.635897-23.630769-44.635897-39.384615 0-86.646154-7.876923-110.276923-15.753846-23.630769-7.876923-42.010256-5.251282-42.010256 7.876923zM790.317949 469.989744c-68.266667 52.512821-55.138462 70.892308 78.76923 107.651282 68.266667 21.005128 78.769231 18.379487 65.641026-15.753847-7.876923-23.630769-15.753846-63.015385-15.753846-91.897435 0-63.015385-47.261538-63.015385-128.65641 0zM533.005128 559.261538c-99.774359 21.005128-141.784615 42.010256-162.789743 89.271795-23.630769 49.887179-21.005128 60.389744 15.753846 60.389744 26.25641 0 86.646154 39.384615 139.158974 89.271795 49.887179 49.887179 128.65641 97.148718 173.292308 105.025641 73.517949 15.753846 89.271795 7.876923 136.533333-73.517949 31.507692-52.512821 68.266667-94.523077 84.020513-94.523077 13.128205 0 26.25641-23.630769 26.25641-52.51282 0-31.507692-18.379487-52.512821-44.635897-52.512821s-86.646154-23.630769-133.907693-52.51282c-47.261538-28.882051-86.646154-49.887179-91.897435-47.261539-2.625641 0-65.641026 15.753846-141.784616 28.882051zM178.54359 630.153846c-10.502564 68.266667-2.625641 78.769231 47.261538 78.769231 73.517949 0 157.538462-105.025641 107.651282-136.533333-15.753846-10.502564-57.764103-21.005128-86.646154-21.005129-44.635897 0-60.389744 18.379487-68.266666 78.769231zM144.410256 787.692308c-10.502564 15.753846 18.379487 26.25641 70.892308 26.25641 47.261538 0 131.282051 10.502564 186.420513 23.630769 99.774359 23.630769 120.779487 10.502564 65.641026-44.635897-36.758974-36.758974-299.323077-42.010256-322.953847-5.251282z" p-id="5318" fill="#12a853"></path></svg>